<svg width="24" height="24" viewBox="0 0 24 24" fill="none" xmlns="http://www.w3.org/2000/svg">
<path fill-rule="evenodd" clip-rule="evenodd" d="M2 7.00244C2 4.37909 4.12665 2.25244 6.75 2.25244H17.25C19.8734 2.25244 22 4.37909 22 7.00244V13.3726C22 15.9959 19.8734 18.1226 17.25 18.1226H15.7997L15.7663 20.0579C15.7489 21.0653 14.608 21.6393 13.7888 21.0527L10.023 18.3562C9.81079 18.2043 9.55631 18.1226 9.29528 18.1226H6.75C4.12665 18.1226 2 15.9959 2 13.3726V7.00244ZM6.75 3.75244C4.95507 3.75244 3.5 5.20752 3.5 7.00244V13.3726C3.5 15.1675 4.95507 16.6226 6.75 16.6226H9.29528C9.86954 16.6226 10.4294 16.8023 10.8963 17.1367L14.2747 19.5558L14.3126 17.3596C14.3197 16.9505 14.6533 16.6226 15.0625 16.6226H17.25C19.0449 16.6226 20.5 15.1675 20.5 13.3726V7.00244C20.5 5.20752 19.0449 3.75244 17.25 3.75244H6.75ZM12.8318 6.43858C13.0308 6.43858 13.2215 6.5176 13.3622 6.65825L15.5303 8.82641C15.8232 9.1193 15.8232 9.59418 15.5303 9.88707L11.7972 13.6202C11.6645 13.7529 11.4869 13.831 11.2995 13.8392L9.03262 13.9379C8.82258 13.947 8.61834 13.8676 8.46967 13.7189C8.321 13.5702 8.24156 13.366 8.25071 13.156L8.34941 10.8891C8.35757 10.7017 8.4357 10.5241 8.56837 10.3914L12.3015 6.65825C12.4422 6.5176 12.6329 6.43858 12.8318 6.43858ZM12.8318 8.24924L9.8353 11.2458L9.78488 12.4037L10.9428 12.3533L13.9393 9.35674L12.8318 8.24924Z" fill="black"/>
</svg>
