<svg width="24" height="25" viewBox="0 0 24 25" fill="none" xmlns="http://www.w3.org/2000/svg">
<path fill-rule="evenodd" clip-rule="evenodd" d="M12.25 4.14624C7.55558 4.14624 3.75 7.95182 3.75 12.6462C3.75 17.3407 7.55558 21.1462 12.25 21.1462C16.9444 21.1462 20.75 17.3407 20.75 12.6462C20.75 7.95182 16.9444 4.14624 12.25 4.14624ZM2.25 12.6462C2.25 7.12339 6.72715 2.64624 12.25 2.64624C17.7728 2.64624 22.25 7.12339 22.25 12.6462C22.25 18.1691 17.7728 22.6462 12.25 22.6462C6.72715 22.6462 2.25 18.1691 2.25 12.6462ZM15.7121 8.80893C14.7749 7.87167 13.2553 7.87167 12.318 8.80893L10.8328 10.2942L14.2268 13.6884L15.7121 12.203C16.6494 11.2658 16.6494 9.74619 15.7121 8.80893ZM13.1661 14.749L9.77213 11.3548L8.2875 12.8394C7.35024 13.7767 7.35024 15.2963 8.2875 16.2336C9.22476 17.1708 10.7444 17.1708 11.6816 16.2336L13.1661 14.749ZM11.2574 7.74827C12.7804 6.22523 15.2497 6.22522 16.7728 7.74827C18.2958 9.27131 18.2958 11.7407 16.7728 13.2637L12.7423 17.2942C11.2192 18.8173 8.74989 18.8173 7.22684 17.2942C5.7038 15.7712 5.7038 13.3018 7.22684 11.7788L11.2574 7.74827Z" fill="black"/>
</svg>
