<svg width="24" height="24" viewBox="0 0 24 24" fill="none" xmlns="http://www.w3.org/2000/svg">
<path fill-rule="evenodd" clip-rule="evenodd" d="M5.89381 6.2796C5.89381 5.05876 6.8835 4.06907 8.10434 4.06907C9.32517 4.06907 10.3149 5.05876 10.3149 6.2796V11.25H13.6842L13.6842 6.2796C13.6842 5.05876 14.6739 4.06907 15.8947 4.06907C17.1156 4.06907 18.1053 5.05876 18.1053 6.2796V6.31308C18.3985 6.18923 18.7209 6.12076 19.0592 6.12076C20.4145 6.12076 21.5132 7.21943 21.5132 8.57471V11.2975C21.7976 11.404 22 11.6784 22 12C22 12.3216 21.7976 12.5959 21.5132 12.7025V15.4253C21.5132 16.7805 20.4145 17.8792 19.0592 17.8792C18.7209 17.8792 18.3985 17.8107 18.1053 17.6869V17.7204C18.1053 18.9412 17.1156 19.9309 15.8947 19.9309C14.6739 19.9309 13.6842 18.9412 13.6842 17.7204L13.6842 12.75H10.3149L10.3149 17.7204C10.3149 18.9412 9.32518 19.9309 8.10434 19.9309C6.8835 19.9309 5.89381 18.9412 5.89381 17.7204V17.6869C5.60056 17.8107 5.27821 17.8792 4.93986 17.8792C3.58459 17.8792 2.48592 16.7805 2.48592 15.4253L2.48592 12.7022C2.202 12.5954 2 12.3213 2 12C2 11.6787 2.202 11.4046 2.48592 11.2978L2.48592 8.57471C2.48592 7.21943 3.58458 6.12076 4.93986 6.12076C5.27821 6.12076 5.60056 6.18923 5.89381 6.31308V6.2796ZM7.39381 8.57471V8.57471L7.39381 17.7204C7.39381 18.1128 7.71192 18.4309 8.10434 18.4309C8.49675 18.4309 8.81486 18.1128 8.81486 17.7204L8.81486 6.2796C8.81486 5.88719 8.49675 5.56907 8.10434 5.56907C7.71192 5.56907 7.39381 5.88719 7.39381 6.2796L7.39381 8.57471ZM5.89381 8.57471C5.89381 8.04786 5.46671 7.62076 4.93986 7.62076C4.41301 7.62076 3.98592 8.04786 3.98592 8.57471L3.98592 15.4253C3.98592 15.9521 4.41301 16.3792 4.93986 16.3792C5.46671 16.3792 5.89381 15.9521 5.89381 15.4253L5.89381 8.57471ZM18.1053 15.4253C18.1053 15.9521 18.5324 16.3792 19.0592 16.3792C19.5861 16.3792 20.0132 15.9521 20.0132 15.4253L20.0132 8.57471C20.0132 8.04786 19.5861 7.62076 19.0592 7.62076C18.5324 7.62076 18.1053 8.04786 18.1053 8.57471L18.1053 15.4253ZM15.8947 5.56907C15.5023 5.56907 15.1842 5.88719 15.1842 6.2796L15.1842 17.7204C15.1842 18.1128 15.5023 18.4309 15.8947 18.4309C16.2872 18.4309 16.6053 18.1128 16.6053 17.7204L16.6053 6.2796C16.6053 5.88719 16.2872 5.56907 15.8947 5.56907Z" fill="black"/>
</svg>
