<svg width="24" height="24" viewBox="0 0 24 24" fill="none" xmlns="http://www.w3.org/2000/svg">
<path fill-rule="evenodd" clip-rule="evenodd" d="M6.23591 2C6.65012 2 6.98591 2.33579 6.98591 2.75V4.70701C6.98591 5.12122 6.65012 5.45701 6.23591 5.45701C5.8217 5.45701 5.48591 5.12122 5.48591 4.70701V4.4784H4.50879V7.7372C4.50879 9.94698 6.30017 11.7384 8.50995 11.7384C10.7197 11.7384 12.5111 9.94698 12.5111 7.7372V4.4784H11.6383V4.70701C11.6383 5.12122 11.3026 5.45701 10.8883 5.45701C10.4741 5.45701 10.1383 5.12122 10.1383 4.70701V2.75C10.1383 2.33579 10.4741 2 10.8883 2C11.3026 2 11.6383 2.33579 11.6383 2.75V2.9784H13.2611C13.6753 2.9784 14.0111 3.31419 14.0111 3.7284V7.7372C14.0111 10.5202 11.9445 12.8206 9.26216 13.1874V16.4988C9.26216 18.7086 11.0535 20.5 13.2633 20.5C15.4731 20.5 17.2645 18.7086 17.2645 16.4988V13.8149C15.9835 13.4824 15.0377 12.3183 15.0377 10.9334C15.0377 9.28932 16.3705 7.95656 18.0145 7.95656C19.6586 7.95656 20.9913 9.28932 20.9913 10.9334C20.9913 12.3184 20.0455 13.4825 18.7645 13.8149V16.4988C18.7645 19.537 16.3015 22 13.2633 22C10.2251 22 7.76216 19.537 7.76216 16.4988V13.188C5.07768 12.8231 3.00879 10.5218 3.00879 7.7372V3.7284C3.00879 3.31419 3.34458 2.9784 3.75879 2.9784H5.48591V2.75C5.48591 2.33579 5.8217 2 6.23591 2ZM18.0145 9.45656C17.1989 9.45656 16.5377 10.1177 16.5377 10.9334C16.5377 11.749 17.1989 12.4102 18.0145 12.4102C18.8301 12.4102 19.4913 11.749 19.4913 10.9334C19.4913 10.1178 18.8301 9.45656 18.0145 9.45656Z" fill="black"/>
</svg>
