<svg width="24" height="24" viewBox="0 0 24 24" fill="none" xmlns="http://www.w3.org/2000/svg">
<path fill-rule="evenodd" clip-rule="evenodd" d="M9.66943 5.26337C9.66943 3.87595 10.7942 2.75122 12.1816 2.75122C13.569 2.75122 14.6937 3.87595 14.6937 5.26337V14.4397C15.909 15.2541 16.7089 16.6399 16.7089 18.2127C16.7089 20.7192 14.6769 22.7512 12.1704 22.7512C9.66381 22.7512 7.63184 20.7192 7.63184 18.2127C7.63184 16.6303 8.44164 15.2371 9.66943 14.4248V5.26337ZM13.1351 7.77038V8.8186H12.8324C12.402 8.8186 12.0531 9.16752 12.0531 9.59792C12.0531 10.0283 12.402 10.3772 12.8324 10.3772H13.1351V11.4255H12.8324C12.402 11.4255 12.0531 11.7744 12.0531 12.2048C12.0531 12.6352 12.402 12.9841 12.8324 12.9841H13.1351V13.7769C12.8242 13.7096 12.5014 13.6741 12.1704 13.6741C11.8473 13.6741 11.5321 13.7079 11.2281 13.7721V5.26337C11.2281 4.73676 11.655 4.30986 12.1816 4.30986C12.7082 4.30986 13.1351 4.73676 13.1351 5.26337V6.21174H12.8324C12.402 6.21174 12.0531 6.56065 12.0531 6.99106C12.0531 7.42146 12.402 7.77038 12.8324 7.77038H13.1351ZM12.1704 15.2328C10.5246 15.2328 9.19048 16.5669 9.19048 18.2127C9.19048 19.8584 10.5246 21.1926 12.1704 21.1926C13.8161 21.1926 15.1503 19.8584 15.1503 18.2127C15.1503 16.5669 13.8161 15.2328 12.1704 15.2328Z" fill="black"/>
</svg>
